#!OML:ASF E:\emotionWalksFemale\Project 1\Capture day 1\Session 1\Female1.ASF
:FULLY-SPECIFIED
:DEGREES
594
root 8.96661 15.476 19.1569 360.21 1.02667 -361.252
lowerback 8.21693 0.508999 1.21279
upperback -4.79978 0.858969 0.252467
thorax -9.72087 0.345997 -0.554167
lowerneck -10.8576 -3.16868 -7.13766
upperneck 11.0427 -3.98456 6.53171
head 5.38012 -1.80555 2.8984
rclavicle 3.20851e-015 9.6659e-015
rhumerus -46.1622 13.3129 -81.514
rradius 38.5398
rwrist 13.1804
rhand -3.58832 -52.3585
rfingers 7.12502
rthumb 22.1492 638.89
lclavicle 3.20851e-015 9.6659e-015
lhumerus -35.9931 2.11622 81.939
lradius 30.7694
lwrist -22.8686
lhand -4.60826 -33.5026
lfingers 7.12502
lthumb 21.1698 -4.63849
rfemur 0.381327 20.6261 28.5655
rtibia 16.9352
rfoot -14.8134 -29.2923
rtoes -3.72948
lfemur -4.89904 -23.1779 -25.681
ltibia 24.4886
lfoot -24.9154 24.0391
ltoes -14.037
595
root 8.97382 15.4778 19.1452 360.161 0.972351 -361.174
lowerback 8.41523 0.42553 1.21714
upperback -4.7372 0.752852 0.28737
thorax -9.77204 0.295432 -0.503651
lowerneck -11.1521 -3.10404 -7.03553
upperneck 11.0888 -3.86425 6.29478
head 5.429 -1.75344 2.81396
rclavicle -9.62786e-015 -1.12375e-014
rhumerus -46.1591 13.3216 -81.5111
rradius 37.6488
rwrist 14.6091
rhand -3.05553 -51.9573
rfingers 7.12502
rthumb 22.6607 639.353
lclavicle -9.62786e-015 -1.12375e-014
lhumerus -35.8622 2.3609 82.1037
lradius 30.8928
lwrist -22.3281
lhand -5.12009 -33.4237
lfingers 7.12502
lthumb 20.678 -4.50521
rfemur 0.335324 20.6496 28.4545
rtibia 17.0449
rfoot -14.7651 -29.2973
rtoes -4.48884
lfemur -4.91217 -23.0608 -25.7883
ltibia 24.4511
lfoot -24.6381 24.0495
ltoes -13.9526
596
root 8.97846 15.4762 19.1366 360.046 0.861997 -361.107
lowerback 8.50725 0.377994 1.21896
upperback -4.60473 0.691157 0.310908
thorax -9.68203 0.267392 -0.469584
lowerneck -11.3182 -3.0343 -6.93584
upperneck 11.0191 -3.74166 6.0666
head 5.42062 -1.70226 2.73398
rclavicle -7.98245e-016 1.16662e-014
rhumerus -46.0605 13.0227 -81.3865
rradius 36.564
rwrist 16.2743
rhand -3.44064 -51.3877
rfingers 7.12502
rthumb 22.291 639.878
lclavicle -7.98245e-016 1.16662e-014
lhumerus -35.6693 2.56398 82.2902
lradius 30.8247
lwrist -21.7077
lhand -5.68731 -33.5717
lfingers 7.12502
lthumb 20.1329 -4.59488
rfemur 0.350759 20.8679 28.3983
rtibia 17.1688
rfoot -14.9805 -29.3608
rtoes -4.26692
lfemur -4.79971 -22.893 -25.9001
ltibia 24.4056
lfoot -24.7866 23.8545
ltoes -13.0469
597
root 8.98376 15.4729 19.1307 359.863 0.724846 -361.116
lowerback 8.42417 0.338528 1.28707
upperback -4.32559 0.645333 0.351252
thorax -9.32691 0.245836 -0.455622
lowerneck -11.5026 -2.95227 -6.841
upperneck 10.837 -3.60822 5.92489
head 5.3816 -1.63976 2.68282
rclavicle -2.71155e-015 -1.6201e-014
rhumerus -45.7328 12.4074 -81.1425
rradius 35.486
rwrist 17.7923
rhand -4.3596 -51.1993
rfingers 7.12502
rthumb 21.4086 639.963
lclavicle -2.71155e-015 -1.6201e-014
lhumerus -35.3354 2.99223 82.4569
lradius 30.8156
lwrist -21.2071
lhand -5.72525 -33.6377
lfingers 7.12502
lthumb 20.0965 -4.6571
rfemur 0.426723 20.9066 28.4312
rtibia 17.32
rfoot -15.0302 -29.2868
rtoes -3.87177
lfemur -4.58091 -22.659 -25.9555
ltibia 24.3401
lfoot -25.0128 23.5855
ltoes -11.9346
598
root 8.99017 15.4718 19.1241 359.725 0.596156 -361.115
lowerback 8.3459 0.2989 1.33344
upperback -4.08433 0.596509 0.388602
thorax -9.0179 0.223688 -0.432807
lowerneck -11.5778 -2.90651 -6.70993
upperneck 10.5755 -3.531 5.75397
head 5.30228 -1.60696 2.61263
rclavicle 3.88251e-015 1.64494e-014
rhumerus -45.3603 11.8609 -80.9877
rradius 34.3347
rwrist 18.9389
rhand -5.18892 -51.6967
rfingers 7.12502
rthumb 20.6119 639.378
lclavicle 3.88251e-015 1.64494e-014
lhumerus -35.1324 3.44682 82.6116
lradius 31.1009
lwrist -20.7966
lhand -4.56195 -33.4924
lfingers 7.12502
lthumb 21.2142 -4.63328
rfemur 0.431565 20.8048 28.4334
rtibia 17.5509
rfoot -14.947 -29.2059
rtoes -4.81809
lfemur -4.40638 -22.2881 -26.0077
ltibia 24.222
lfoot -24.7432 23.6183
ltoes -13.4305
